# xmcd
#
# Track frame offsets:
#	150
#	11397
#	22871
#	39594
#	56841
#	76390
#	95866
#	97856
#	109122
#	110582
#	121434
#	122329
#
# Disc length: 1706 seconds
#
# Revision: 0
# Processed by: cddbd v1.4PL0 Copyright (c) Steve Scherf et al.
# Submitted via: EasyCDDAExtractor 4.6.9.1
#
DISCID=8f06a80c
DTITLE=Eric Clapton - Guitarist Icons - Special
DYEAR=2002
DGENRE=blues
TTITLE0=Steppin Out
TTITLE1=Strppin Out backing track
TTITLE2=Cocaine
TTITLE3=Cocaine backing track
TTITLE4=Crossroads
TTITLE5=Crossroads backing track
TTITLE6=Clapton Soundbites intro
TTITLE7=Clapton Soundbites
TTITLE8=Martin 59 000 intro
TTITLE9=Martin 59 000 full demo
TTITLE10=Fender Eric Clapton Strat intro
TTITLE11=Fender Eric Clapton Strat full demo
EXTD=
EXTT0=
EXTT1=
EXTT2=
EXTT3=
EXTT4=
EXTT5=
EXTT6=
EXTT7=
EXTT8=
EXTT9=
EXTT10=
EXTT11=
PLAYORDER=
